<?xml version="1.0" standalone="no"?>
<!DOCTYPE svg PUBLIC "-//W3C//DTD SVG 20010904//EN"
 "http://www.w3.org/TR/2001/REC-SVG-20010904/DTD/svg10.dtd">
<svg version="1.0" xmlns="http://www.w3.org/2000/svg"
 width="2000.000000pt" height="1976.000000pt" viewBox="0 0 2000.000000 1976.000000"
 preserveAspectRatio="xMidYMid meet">
<metadata>
Created by potrace 1.15, written by Peter Selinger 2001-2017
</metadata>
<g transform="translate(0.000000,1976.000000) scale(0.100000,-0.100000)"
fill="#000000" stroke="none">
<path d="M3738 17080 c-821 -53 -1525 -412 -1967 -1005 -253 -338 -462 -833
-560 -1321 -323 -1624 338 -3375 1849 -4895 304 -306 683 -607 1055 -839 l136
-84 -129 -131 c-319 -324 -567 -628 -795 -976 -534 -815 -787 -1639 -787
-2569 0 -411 42 -695 152 -1029 229 -691 737 -1197 1430 -1426 312 -102 552
-139 923 -139 272 0 390 9 630 49 403 68 872 228 1195 410 628 353 1230 969
1724 1765 444 714 794 1552 1002 2400 l48 195 371 0 372 0 33 -140 c46 -199
147 -547 225 -775 548 -1601 1504 -2899 2555 -3467 305 -165 723 -309 1094
-378 778 -143 1523 -41 2069 285 468 278 803 700 976 1225 118 359 158 660
148 1120 -12 581 -105 1051 -310 1569 -252 639 -675 1270 -1241 1853 l-155
160 117 73 c547 342 994 730 1467 1275 1156 1333 1678 2790 1499 4190 -68 535
-261 1083 -522 1480 -441 673 -1178 1071 -2083 1125 -845 51 -1783 -246 -2694
-852 -1499 -998 -2589 -2624 -3071 -4578 -36 -146 -67 -274 -69 -285 -4 -19
-9 -20 -152 -12 -81 4 -264 6 -407 5 l-258 -3 -44 185 c-492 2078 -1634 3761
-3244 4781 -856 543 -1770 811 -2582 759z m509 -855 c650 -76 1336 -379 2021
-894 1103 -831 1928 -2075 2364 -3566 44 -151 138 -518 133 -523 -1 -2 -67
-16 -146 -32 -1241 -255 -2479 -808 -3546 -1587 l-142 -103 -133 76 c-484 278
-834 547 -1198 920 -937 960 -1478 1982 -1607 3034 -24 197 -24 602 1 785 73
557 280 1063 554 1356 142 151 282 254 477 350 189 93 423 161 640 187 127 16
435 14 582 -3z m12103 5 c323 -39 611 -142 855 -304 326 -218 542 -529 701
-1011 275 -836 173 -1812 -291 -2760 -253 -516 -605 -1018 -1052 -1500 -321
-346 -580 -570 -943 -817 -131 -90 -389 -247 -476 -291 l-51 -26 -149 110
c-1013 751 -2360 1351 -3544 1580 -63 12 -120 25 -127 28 -22 11 140 608 251
921 442 1251 1135 2275 2044 3019 172 141 303 238 497 366 582 385 1153 612
1705 679 139 17 463 20 580 6z m-6074 -5752 c-9 -51 -43 -404 -58 -598 -21
-280 -18 -1096 5 -1343 11 -109 16 -201 13 -205 -10 -9 -296 -15 -378 -8 l-73
7 12 117 c28 280 36 511 30 907 -3 220 -11 463 -17 540 -13 175 -48 539 -56
583 l-6 32 267 0 267 0 -6 -32z"/>
</g>
</svg>
