<?xml version="1.0" standalone="no"?>
<!DOCTYPE svg PUBLIC "-//W3C//DTD SVG 20010904//EN"
 "http://www.w3.org/TR/2001/REC-SVG-20010904/DTD/svg10.dtd">
<svg version="1.0" xmlns="http://www.w3.org/2000/svg"
 width="2000.000000pt" height="1973.000000pt" viewBox="0 0 2000.000000 1973.000000"
 preserveAspectRatio="xMidYMid meet">
<metadata>
Created by potrace 1.15, written by Peter Selinger 2001-2017
</metadata>
<g transform="translate(0.000000,1973.000000) scale(0.100000,-0.100000)"
fill="#000000" stroke="none">
<path d="M4625 17695 c-621 -88 -1110 -389 -1406 -865 -117 -189 -233 -467
-294 -705 -305 -1193 126 -2508 1198 -3656 296 -317 522 -508 870 -737 l166
-109 -81 -79 c-614 -604 -1026 -1348 -1147 -2069 -39 -229 -46 -326 -46 -595
1 -291 12 -399 65 -611 162 -653 607 -1100 1259 -1263 544 -138 1233 -52 1796
224 531 260 1033 764 1444 1449 311 517 547 1092 701 1706 l38 150 275 3 276
2 10 -37 c5 -21 24 -93 41 -161 182 -730 540 -1503 952 -2061 363 -490 756
-841 1173 -1046 724 -355 1584 -392 2181 -92 744 373 1063 1147 918 2227 -99
739 -484 1475 -1107 2116 l-138 142 48 27 c100 58 343 228 468 328 181 144
345 297 513 478 551 592 927 1206 1130 1841 244 763 225 1540 -54 2207 -79
188 -191 377 -305 517 -303 371 -790 619 -1325 675 -184 19 -505 7 -689 -25
-638 -111 -1273 -427 -1885 -937 -163 -135 -487 -459 -624 -624 -590 -709
-996 -1529 -1233 -2491 l-47 -190 -302 0 -303 0 -32 135 c-312 1329 -1003
2475 -1950 3235 -607 486 -1231 783 -1859 881 -146 24 -559 29 -695 10z m562
-630 c529 -68 1123 -356 1663 -809 119 -99 374 -351 484 -476 469 -534 835
-1199 1061 -1927 59 -189 138 -491 131 -502 -3 -5 -25 -11 -48 -15 -275 -43
-798 -198 -1172 -348 -538 -214 -1087 -517 -1514 -834 -61 -46 -118 -84 -125
-84 -15 0 -265 148 -376 223 -363 243 -708 574 -1029 987 -544 700 -822 1453
-799 2165 13 391 111 749 286 1038 188 312 516 517 927 581 121 19 367 19 511
1z m9145 -14 c430 -93 723 -312 907 -678 420 -836 254 -1935 -439 -2913 -293
-414 -661 -800 -1004 -1055 -169 -125 -504 -335 -535 -335 -6 0 -53 31 -103
68 -764 564 -1677 977 -2603 1177 l-150 32 3 37 c5 57 104 411 171 609 414
1219 1183 2181 2190 2738 306 169 657 291 956 333 159 22 476 15 607 -13z
m-4676 -4288 c-12 -77 -36 -354 -46 -533 -18 -326 -13 -636 16 -977 l7 -83
-172 0 -171 0 5 23 c28 125 42 675 26 987 -11 210 -33 480 -47 578 l-6 42 197
0 197 0 -6 -37z"/>
<path d="M3100 3500 c-265 -41 -430 -256 -430 -560 0 -178 48 -308 155 -416
97 -99 212 -144 365 -144 315 0 519 221 520 563 0 323 -184 539 -480 560 -41
3 -100 2 -130 -3z m246 -172 c126 -65 194 -202 194 -389 0 -197 -76 -331 -225
-395 -28 -13 -66 -18 -125 -18 -164 0 -279 88 -331 253 -23 75 -26 230 -5 306
35 134 119 228 236 266 14 5 66 7 115 6 74 -3 99 -8 141 -29z"/>
<path d="M18140 3488 c-102 -29 -180 -136 -180 -248 0 -139 98 -246 234 -257
189 -16 320 142 276 328 -18 73 -102 160 -172 177 -55 14 -109 14 -158 0z
m153 -47 c39 -15 96 -70 119 -114 30 -59 22 -150 -17 -207 -115 -165 -369
-100 -383 100 -2 32 1 74 7 93 14 42 72 104 115 123 36 15 124 18 159 5z"/>
<path d="M18110 3246 l0 -146 30 0 c30 0 30 0 30 56 l0 57 43 -7 c49 -8 67
-27 67 -73 0 -30 3 -33 30 -33 30 0 30 0 23 48 -3 26 -12 55 -20 64 -13 14
-12 19 6 37 27 27 27 73 -1 106 -21 24 -32 27 -115 32 l-93 6 0 -147z"/>
<path d="M1520 3415 l0 -75 200 0 200 0 0 -217 c0 -327 -19 -421 -99 -503 -60
-62 -129 -84 -243 -78 l-78 5 0 -77 0 -77 48 -6 c62 -7 196 8 252 28 109 39
173 97 222 200 52 111 58 167 58 538 l0 337 -280 0 -280 0 0 -75z"/>
<path d="M4292 3098 c3 -378 4 -395 26 -456 43 -121 109 -193 211 -234 47 -18
76 -22 181 -22 108 0 133 3 184 23 72 29 149 97 182 163 49 97 54 145 54 546
l0 372 -85 0 -85 0 0 -373 c0 -417 -3 -442 -65 -514 -45 -53 -100 -74 -189
-74 -124 0 -209 70 -235 191 -7 31 -11 190 -11 410 l0 360 -86 0 -85 0 3 -392z"/>
<path d="M5760 2940 l0 -550 85 0 85 0 0 200 0 200 63 0 62 0 19 -61 c37 -118
140 -243 240 -292 57 -28 138 -47 196 -47 l40 0 0 80 0 80 -48 0 c-95 0 -200
78 -257 189 -27 54 -26 71 3 71 33 0 137 58 174 96 64 68 83 123 83 244 -1
120 -18 170 -83 235 -86 86 -167 105 -449 105 l-213 0 0 -550z m444 399 c99
-33 151 -135 127 -245 -15 -64 -48 -107 -105 -136 -34 -18 -63 -23 -168 -26
l-128 -4 0 217 0 217 118 -5 c64 -3 135 -11 156 -18z"/>
<path d="M7100 2940 l0 -550 86 0 86 0 -4 391 c-2 323 -1 387 10 371 7 -11
131 -186 275 -388 l262 -369 63 -3 62 -3 0 551 0 550 -86 0 -86 0 4 -388 3
-389 -110 156 c-61 86 -184 261 -275 389 l-164 232 -63 0 -63 0 0 -550z"/>
<path d="M8520 2940 l0 -550 360 0 360 0 0 75 0 75 -275 0 -275 0 0 175 0 175
205 0 205 0 0 75 0 75 -205 0 -205 0 0 155 0 155 275 0 275 0 0 70 0 70 -360
0 -360 0 0 -550z"/>
<path d="M9862 3468 c9 -13 97 -152 197 -310 l181 -286 0 -241 0 -241 90 0 90
0 0 243 0 244 186 294 c102 162 188 300 191 307 4 9 -17 12 -85 12 l-90 0
-143 -235 c-79 -129 -146 -235 -149 -235 -3 1 -70 106 -150 235 l-145 235 -94
0 -93 0 14 -22z"/>
</g>
</svg>
