<?xml version="1.0" standalone="no"?>
<!DOCTYPE svg PUBLIC "-//W3C//DTD SVG 20010904//EN"
 "http://www.w3.org/TR/2001/REC-SVG-20010904/DTD/svg10.dtd">
<svg version="1.0" xmlns="http://www.w3.org/2000/svg"
 width="1500.000000pt" height="206.000000pt" viewBox="0 0 1500.000000 206.000000"
 preserveAspectRatio="xMidYMid meet">
<metadata>
Created by potrace 1.15, written by Peter Selinger 2001-2017
</metadata>
<g transform="translate(0.000000,206.000000) scale(0.100000,-0.100000)"
fill="#000000" stroke="none">
<path d="M1982 1465 c-160 -45 -267 -178 -294 -363 -31 -214 56 -414 216 -492
215 -106 481 -25 575 174 69 144 66 355 -6 487 -38 71 -129 152 -200 179 -75
29 -216 36 -291 15z m261 -138 c53 -31 86 -72 119 -143 20 -42 23 -66 23 -164
0 -97 -4 -122 -22 -162 -33 -72 -68 -112 -125 -144 -46 -25 -63 -29 -133 -29
-96 0 -142 21 -204 91 -99 113 -109 326 -20 464 55 87 125 121 240 117 61 -3
85 -9 122 -30z"/>
<path d="M750 1410 l0 -60 160 0 160 0 0 -208 c0 -233 -11 -303 -59 -361 -53
-67 -73 -76 -182 -79 l-99 -4 0 -64 0 -64 83 0 c199 0 315 75 369 238 20 62
22 91 26 365 l4 297 -231 0 -231 0 0 -60z"/>
<path d="M3002 1138 l3 -333 29 -63 c57 -123 151 -176 311 -175 121 1 188 26
249 94 78 86 80 98 84 477 l3 332 -70 0 -71 0 0 -309 c0 -252 -3 -316 -15
-352 -30 -83 -87 -122 -180 -123 -102 -1 -169 48 -195 143 -6 20 -10 167 -10
339 l0 302 -71 0 -70 0 3 -332z"/>
<path d="M4190 1021 l0 -451 70 0 70 0 0 165 0 165 49 0 c48 0 50 -1 61 -37
53 -166 173 -272 328 -289 l62 -7 0 69 0 69 -44 1 c-80 2 -154 60 -204 160
l-20 40 42 12 c68 18 137 70 166 127 22 43 25 63 25 145 0 86 -3 99 -28 143
-15 26 -45 58 -65 72 -77 50 -114 58 -319 63 l-193 4 0 -451z m330 328 c118
-25 172 -136 120 -244 -32 -65 -81 -87 -207 -93 l-103 -5 0 177 0 176 70 0
c38 0 92 -5 120 -11z"/>
<path d="M5280 1021 l0 -451 65 0 65 0 2 315 3 315 224 -315 224 -315 48 0 49
0 0 450 0 450 -65 0 -65 0 -2 -315 -3 -315 -221 313 -221 312 -52 3 -51 3 0
-450z"/>
<path d="M6430 1020 l0 -450 295 0 295 0 0 65 0 65 -225 0 -225 0 0 140 0 140
170 0 170 0 0 60 0 60 -170 0 -170 0 0 125 0 125 225 0 225 0 0 60 0 60 -295
0 -295 0 0 -450z"/>
<path d="M7520 1449 c7 -12 79 -127 161 -256 l149 -235 0 -194 0 -194 70 0 70
0 0 195 0 194 160 253 160 253 -67 3 c-36 2 -71 1 -78 -1 -6 -3 -62 -89 -125
-191 -62 -102 -116 -186 -119 -186 -3 0 -58 85 -122 188 l-116 187 -77 3 c-76
3 -77 3 -66 -19z"/>
<path d="M14215 1456 c-128 -57 -164 -231 -69 -336 98 -108 273 -87 343 40 30
53 34 148 9 195 -21 40 -76 91 -111 104 -39 15 -136 13 -172 -3z m166 -42 c69
-34 108 -123 88 -196 -29 -110 -171 -164 -259 -100 -91 68 -103 187 -25 263
56 55 128 67 196 33z"/>
<path d="M14220 1260 l0 -120 25 0 c23 0 25 4 25 45 0 43 1 45 28 45 37 0 52
-17 52 -57 0 -29 3 -33 25 -33 22 0 25 4 25 38 0 21 -6 47 -14 57 -11 16 -11
21 0 33 8 7 14 29 14 47 0 49 -28 65 -112 65 l-68 0 0 -120z"/>
</g>
</svg>
